<mxfile host="65bd71144e">
    <diagram id="StAECSEAlhtb-myj5aJj" name="Page-1">
        <mxGraphModel dx="1130" dy="673" grid="1" gridSize="10" guides="1" tooltips="1" connect="1" arrows="1" fold="1" page="1" pageScale="1" pageWidth="850" pageHeight="1100" math="0" shadow="0">
            <root>
                <mxCell id="0"/>
                <mxCell id="1" parent="0"/>
                <mxCell id="6" style="edgeStyle=none;html=1;entryX=0;entryY=0.5;entryDx=0;entryDy=0;" edge="1" parent="1" source="2" target="3">
                    <mxGeometry relative="1" as="geometry"/>
                </mxCell>
                <mxCell id="2" value="&amp;nbsp; &amp;nbsp;&lt;b&gt;User UTxO&lt;/b&gt;&lt;br&gt;&lt;b&gt;&amp;nbsp; &amp;nbsp;assets:&lt;/b&gt;&lt;br&gt;&lt;span style=&quot;font-weight: bold; white-space: pre;&quot;&gt;&#9;&lt;/span&gt;coin: 4 ADA&lt;br&gt;&lt;span style=&quot;white-space: pre;&quot;&gt;&#9;&lt;/span&gt;token: 1 bond token" style="rounded=0;whiteSpace=wrap;html=1;align=left;fillColor=#d5e8d4;strokeColor=#82b366;" vertex="1" parent="1">
                    <mxGeometry x="20" y="220" width="250" height="80" as="geometry"/>
                </mxCell>
                <mxCell id="19" style="edgeStyle=segmentEdgeStyle;shape=connector;curved=0;rounded=0;html=1;entryX=0;entryY=0.5;entryDx=0;entryDy=0;labelBackgroundColor=default;strokeColor=default;fontFamily=Helvetica;fontSize=11;fontColor=default;endArrow=classic;startSize=8;endSize=8;" edge="1" parent="1" source="3" target="5">
                    <mxGeometry relative="1" as="geometry">
                        <Array as="points">
                            <mxPoint x="510" y="260"/>
                            <mxPoint x="510" y="260"/>
                        </Array>
                    </mxGeometry>
                </mxCell>
                <mxCell id="3" value="Ask Limit Create" style="shape=process;whiteSpace=wrap;html=1;backgroundOutline=1;" vertex="1" parent="1">
                    <mxGeometry x="350" y="230" width="125" height="60" as="geometry"/>
                </mxCell>
                <mxCell id="5" value="&amp;nbsp; &amp;nbsp;&lt;b&gt;Ask Limit UTxO&lt;br&gt;&lt;/b&gt;&amp;nbsp; &amp;nbsp;&lt;b&gt;address:&lt;br&gt;&lt;/b&gt;&lt;span style=&quot;&quot;&gt;&#9;&lt;/span&gt;&lt;span style=&quot;&quot;&gt;&#9;&lt;/span&gt;&lt;span style=&quot;white-space: pre;&quot;&gt;&#9;&lt;/span&gt;payment: Ask Limit Script Credential&lt;br&gt;&lt;span style=&quot;&quot;&gt;&#9;&lt;/span&gt;&lt;span style=&quot;&quot;&gt;&#9;&lt;/span&gt;&lt;span style=&quot;white-space: pre;&quot;&gt;&#9;&lt;/span&gt;stake: user SPO pubkey Credential&lt;br&gt;&amp;nbsp; &amp;nbsp;&lt;b&gt;datum:&lt;br&gt;&lt;/b&gt;&lt;span style=&quot;&quot;&gt;&#9;&lt;/span&gt;&lt;span style=&quot;&quot;&gt;&#9;&lt;/span&gt;&lt;span style=&quot;white-space: pre;&quot;&gt;&#9;&lt;/span&gt;payment_key:&amp;nbsp;04b058fbc736588695...&lt;br&gt;&lt;span style=&quot;font-weight: bold;&quot;&gt;&#9;&lt;/span&gt;&lt;span style=&quot;white-space: pre;&quot;&gt;&#9;&lt;/span&gt;stake_key:&amp;nbsp;41fa931b257f64696f831...&lt;br&gt;&lt;span style=&quot;white-space: pre;&quot;&gt;&#9;&lt;/span&gt;requested_yield: 600&lt;br&gt;&lt;b&gt;&amp;nbsp; &amp;nbsp;assets:&lt;/b&gt;&lt;br&gt;&lt;span style=&quot;font-weight: bold;&quot;&gt;&#9;&lt;/span&gt;&lt;span style=&quot;&quot;&gt;&#9;&lt;/span&gt;&lt;span style=&quot;white-space: pre;&quot;&gt;&#9;&lt;/span&gt;coin: 2 ADA&lt;br&gt;&lt;span style=&quot;white-space: pre;&quot;&gt;&#9;&lt;/span&gt;token: 1 bond token" style="rounded=0;whiteSpace=wrap;html=1;align=left;fillColor=#fff2cc;strokeColor=#d6b656;" vertex="1" parent="1">
                    <mxGeometry x="570" y="170" width="250" height="180" as="geometry"/>
                </mxCell>
            </root>
        </mxGraphModel>
    </diagram>
</mxfile>